# xmcd
#
# Track frame offsets:
#   150
#   21200
#   39252
#   63408
#   81958
#   103266
#   120788
#   139592
#   156881
#   176079
#   198401
#   221405
#   242264
#   261057
#   276200
#   295568
#   320011
#   334796
#
# Disc length: 4770 seconds
#
# Revision: 0
# Processed by: cddbd v1.5PL3 Copyright (c) Steve Scherf et al.
# Submitted via: Media_Universe 3.0
#
DISCID=fa12a012
DTITLE=Faith Hill - Cry and Mixed
DYEAR=2003
DGENRE=Country
TTITLE0=Free
TTITLE1=Cry
TTITLE2=One
TTITLE3=When The Lights Go Down
TTITLE4=Beautiful
TTITLE5=Unsavable
TTITLE6=Baby You Belong
TTITLE7=If You're Gonna Fly Away
TTITLE8=Stronger
TTITLE9=If This Is The End
TTITLE10=This Is Me
TTITLE11=Back To You
TTITLE12=I Think I Will
TTITLE13=You're Still Here
TTITLE14=It All Comes Down To Love
TTITLE15=When You Cry
TTITLE16=All We Ever Find
TTITLE17=National Anthem
EXTD=
EXTT0=
EXTT1=
EXTT2=
EXTT3=
EXTT4=
EXTT5=
EXTT6=
EXTT7=
EXTT8=
EXTT9=
EXTT10=
EXTT11=
EXTT12=
EXTT13=
EXTT14=
EXTT15=
EXTT16=
EXTT17=
PLAYORDER=
